<?xml version="1.0" standalone="no"?>
<!DOCTYPE svg PUBLIC "-//W3C//DTD SVG 20010904//EN" "http://www.w3.org/TR/2001/REC-SVG-20010904/DTD/svg10.dtd">
<svg version="1.0" xmlns="http://www.w3.org/2000/svg"
     width="2710.000000pt" height="2745.000000pt" viewBox="0 0 2710.000000 2745.000000"
     preserveAspectRatio="xMidYMid meet">
    <g transform="translate(0.000000,2745.000000) scale(0.100000,-0.100000)"
       fill="#006965" stroke="none">
        <path d="M13365 27439 c-1799 -40 -3606 -453 -5260 -1201 -1584 -717 -3085
-1775 -4252 -2997 -1218 -1275 -2131 -2668 -2794 -4259 -919 -2205 -1242
-4640 -934 -7032 450 -3486 2281 -6725 5054 -8943 787 -629 1580 -1134 2491
-1586 1271 -631 2566 -1041 3965 -1255 704 -108 1297 -151 2085 -150 531 0
724 7 1170 45 3922 329 7481 2298 9825 5434 990 1324 1740 2836 2198 4431 86
298 155 580 168 684 27 223 -18 472 -124 674 -166 319 -462 539 -827 616 -88
18 -267 24 -363 11 -378 -51 -712 -290 -896 -642 -66 -126 -93 -199 -136 -370
-359 -1423 -1034 -2836 -1914 -4006 -816 -1085 -1769 -1974 -2903 -2711 -1907
-1238 -4214 -1880 -6505 -1811 -1659 49 -3172 420 -4628 1133 -1655 811 -3071
1990 -4185 3487 -1232 1654 -1991 3626 -2184 5674 -36 381 -41 506 -41 1075 0
602 8 765 56 1210 258 2389 1234 4564 2859 6375 186 207 621 642 825 825 1206
1081 2567 1869 4100 2374 1730 569 3570 710 5358 411 1541 -258 2996 -819
4307 -1658 208 -133 400 -266 400 -277 0 -5 -932 -1101 -2071 -2437 -1681
-1971 -2076 -2429 -2097 -2431 -97 -12 -228 -65 -291 -118 l-32 -27 -157 51
c-350 115 -602 156 -952 156 -231 0 -360 -12 -570 -54 -520 -104 -1026 -347
-1482 -712 -197 -158 -276 -236 -730 -722 l-438 -469 -152 -1 c-139 -1 -159
-4 -220 -28 -147 -56 -264 -152 -337 -276 -63 -106 -83 -180 -89 -312 -5 -142
11 -219 70 -334 46 -88 112 -160 402 -431 l148 -140 -863 -923 c-532 -569
-882 -951 -912 -995 -91 -136 -126 -317 -94 -486 50 -259 255 -465 517 -517
212 -42 436 24 589 175 37 36 440 466 896 954 455 488 832 886 836 885 4 -2
397 -367 873 -812 l866 -809 -32 -36 c-17 -20 -406 -436 -862 -925 -457 -488
-846 -909 -865 -935 -199 -273 -147 -673 116 -892 66 -55 194 -116 278 -134
201 -42 414 10 564 139 33 28 421 438 862 911 441 473 825 884 854 914 l53 54
167 -156 c174 -164 251 -218 365 -258 94 -33 303 -34 405 -2 320 101 510 428
440 757 -12 55 -12 73 -2 85 6 9 172 187 367 395 195 209 382 409 416 445 153
165 374 471 496 686 215 380 358 780 420 1178 19 122 22 182 22 432 0 251 -3
309 -22 430 -40 257 -114 513 -213 742 l-49 112 30 44 c61 90 91 190 94 311
l1 75 2565 3007 c1411 1654 2584 3034 2608 3068 112 157 160 306 169 516 4
111 2 152 -15 230 -42 203 -136 374 -278 510 -106 101 -467 401 -705 586 -565
439 -1233 884 -1834 1221 -835 469 -1760 870 -2628 1139 -1431 443 -2854 638
-4412 603z"/>
    </g>
</svg>
